<?xml version="1.0" encoding="UTF-8" standalone="no"?>
<svg
   viewBox="0 0 22 22"
   version="1.1"
   id="svg1"
   sodipodi:docname="icon_inkscape.svg"
   inkscape:version="1.3.2 (091e20ef0f, 2023-11-25)"
   inkscape:export-filename="icon.svg"
   inkscape:export-xdpi="96"
   inkscape:export-ydpi="96"
   width="1024"
   height="1024"
   xmlns:inkscape="http://www.inkscape.org/namespaces/inkscape"
   xmlns:sodipodi="http://sodipodi.sourceforge.net/DTD/sodipodi-0.dtd"
   xmlns="http://www.w3.org/2000/svg"
   xmlns:svg="http://www.w3.org/2000/svg">
  <defs
     id="defs1" />
  <sodipodi:namedview
     id="namedview1"
     pagecolor="#505050"
     bordercolor="#ffffff"
     borderopacity="1"
     inkscape:showpageshadow="0"
     inkscape:pageopacity="0"
     inkscape:pagecheckerboard="1"
     inkscape:deskcolor="#505050"
     showgrid="false"
     inkscape:zoom="0.5"
     inkscape:cx="531"
     inkscape:cy="486"
     inkscape:window-width="1920"
     inkscape:window-height="1014"
     inkscape:window-x="0"
     inkscape:window-y="0"
     inkscape:window-maximized="1"
     inkscape:current-layer="svg1" />
  <path
     id="path4"
     style="fill:#ff2a2a;fill-opacity:1"
     d="M 11,1.6035156 C 10.354002,1.6205156 9.727499,1.8168758 9.1875,2.171875 8.647501,2.5268742 8.2182652,3.0253293 7.9472656,3.6113281 7.3392668,3.3883285 6.6799205,3.3406565 6.0449219,3.4726562 5.4099231,3.6026559 4.8254679,3.9075166 4.3554688,4.3535156 3.9104697,4.8235148 3.6055623,5.4099701 3.4765625,6.0429688 3.3465627,6.6759675 3.3970942,7.3315012 3.6210938,7.9375 3.0340948,8.2114994 2.5337336,8.6435948 2.1777344,9.1835938 1.821735,9.7235926 1.6225156,10.353002 1.6035156,11 c 0.02,0.646998 0.2182194,1.275408 0.5742188,1.816406 0.3559992,0.54 0.8563604,0.973094 1.4433594,1.246094 -0.2239996,0.605998 -0.2745311,1.261533 -0.1445313,1.894531 0.1299998,0.634 0.4329541,1.219455 0.8769531,1.689453 0.4699992,0.443 1.0545014,0.745955 1.6875,0.876954 0.6329988,0.131999 1.2894856,0.08523 1.8964844,-0.134766 0.2739994,0.585998 0.7050948,1.0825 1.2460938,1.4375 0.5399988,0.354 1.1704082,0.552312 1.8164062,0.570312 0.646998,-0.016 1.275408,-0.214359 1.816406,-0.568359 0.541,-0.354 0.973094,-0.853455 1.246094,-1.439453 0.603998,0.239 1.265344,0.296062 1.902344,0.164062 0.635998,-0.131998 1.219689,-0.44625 1.679687,-0.90625 0.46,-0.459998 0.776205,-1.044642 0.908203,-1.68164 0.132,-0.637 0.07594,-1.298346 -0.164062,-1.902344 0.585998,-0.274 1.0825,-0.705094 1.4375,-1.246094 0.354,-0.539998 0.552312,-1.170408 0.570312,-1.816406 -0.018,-0.645998 -0.215312,-1.2754074 -0.570312,-1.8164062 -0.354,-0.539999 -0.851502,-0.9720944 -1.4375,-1.2460938 0.223,-0.6069988 0.268672,-1.2634856 0.138672,-1.8964844 -0.131,-0.6339986 -0.43586,-1.2185008 -0.88086,-1.6875 -0.469998,-0.444999 -1.0535,-0.7488597 -1.6875,-0.8808594 C 15.325986,3.3426565 14.669498,3.3883285 14.0625,3.6113281 13.7895,3.0243293 13.357406,2.5258742 12.816406,2.171875 12.275408,1.8178758 11.646998,1.6195156 11,1.6035156 Z M 8.7871094,7.25 11,9.6523438 13.212891,7.25 14.5625,8.4804688 12.242188,11 14.5625,13.519531 13.212891,14.75 11,12.347656 8.7871094,14.75 7.4375,13.519531 9.7578125,11 7.4375,8.4804688 Z" />
</svg>
